<?xml version="1.0" encoding="UTF-8"?>
<svg width="11px" height="14px" viewBox="0 0 11 14" version="1.1" xmlns="http://www.w3.org/2000/svg" xmlns:xlink="http://www.w3.org/1999/xlink">
    <title>fork_right_FILL0_wght200_GRAD0_opsz24</title>
    <g id="Page-1" stroke="none" stroke-width="1" fill="none" fill-rule="evenodd">
        <g id="MacBook-Air-13&quot;" transform="translate(-485.000000, -243.000000)" fill="#848D97" fill-rule="nonzero">
            <g id="Group-7" transform="translate(343.000000, 77.000000)">
                <g id="Group-6-Copy" transform="translate(0.000000, 166.000000)">
                    <g id="fork_right_FILL0_wght200_GRAD0_opsz24" transform="translate(142.000000, 0.000000)">
                        <path d="M2.50938031,14 L2.50938031,1.68305042 L0.63250648,3.51770174 L0,2.89771929 L2.95625503,0 L5.91251005,2.89771929 L5.28000357,3.52273904 L3.40312975,1.68305042 L3.40312975,8.98291228 C3.86719425,8.27196637 4.43552952,7.74212244 5.10813556,7.39338048 C5.7807416,7.04465313 6.52495931,6.87028946 7.34078869,6.87028946 C7.68796566,6.87028946 8.02197473,6.88320393 8.34281588,6.90903288 C8.66364214,6.93486184 8.97702793,6.97360526 9.28297326,7.02526317 L7.41126084,5.18557454 L8.04374497,4.56559209 L11,7.46331139 L8.04374497,10.3610088 L7.41126084,9.74104823 L9.28297326,7.9013377 C8.97016096,7.8496652 8.64588632,7.80726425 8.31014934,7.77413486 C7.97442726,7.74100547 7.64443262,7.72444077 7.32016542,7.72444077 C6.45850159,7.72444077 5.663005,7.98640971 4.93367567,8.51034759 C4.20436123,9.03430007 3.69417925,9.83089473 3.40312975,10.9001316 L3.40312975,14 L2.50938031,14 Z" id="Path"></path>
                    </g>
                </g>
            </g>
        </g>
    </g>
</svg>