<?xml version="1.0" encoding="UTF-8"?>
<svg width="12px" height="12px" viewBox="0 0 12 12" version="1.1" xmlns="http://www.w3.org/2000/svg" xmlns:xlink="http://www.w3.org/1999/xlink">
    <title>github-mark-white</title>
    <g id="Page-1" stroke="none" stroke-width="1" fill="none" fill-rule="evenodd">
        <g id="MacBook-Air-13&quot;" transform="translate(-343.000000, -218.000000)" fill="#FFFFFF">
            <g id="Group-7" transform="translate(343.000000, 77.000000)">
                <g id="Group-6" transform="translate(0.000000, 66.000000)">
                    <g id="Group-2" transform="translate(0.000000, 73.000000)">
                        <g id="github-mark-white" transform="translate(0.000000, 2.000000)">
                            <path d="M6.0049647,0 C2.68437434,0 0,2.7499885 0,6.15209928 C0,8.8715879 1.71997116,11.1735783 4.10602706,11.9883249 C4.4043455,12.0495746 4.51361831,11.8559504 4.51361831,11.6930761 C4.51361831,11.5504517 4.50378499,11.0615787 4.50378499,10.5522059 C2.83334919,10.9189543 2.48549538,9.81883394 2.48549538,9.81883394 C2.21704565,9.10583692 1.81928773,8.92258769 1.81928773,8.92258769 C1.27255495,8.54571427 1.85911269,8.54571427 1.85911269,8.54571427 C2.4655829,8.5864641 2.78381383,9.17721163 2.78381383,9.17721163 C3.32059036,10.1142077 4.18555406,9.84945881 4.53353079,9.6864595 C4.58318907,9.28921116 4.74236599,9.01421231 4.91137624,8.86146295 C3.57908385,8.71883854 2.17734361,8.18921576 2.17734361,5.82610064 C2.17734361,5.15385345 2.4158017,4.60385575 2.79364715,4.17610754 C2.73403263,4.02335818 2.52519742,3.39173582 2.85338459,2.54636435 C2.85338459,2.54636435 3.36041532,2.38336503 4.50366207,3.17786171 C4.99312666,3.0431951 5.49790356,2.97468935 6.0049647,2.97411256 C6.51199544,2.97411256 7.02885949,3.04548727 7.50614442,3.17786171 C8.64951409,2.38336503 9.15654482,2.54636435 9.15654482,2.54636435 C9.48473199,3.39173582 9.27577387,4.02335818 9.21615934,4.17610754 C9.60396103,4.60385575 9.8325858,5.15385345 9.8325858,5.82610064 C9.8325858,8.18921576 8.43084556,8.70858859 7.08859693,8.86146295 C7.30738837,9.05496214 7.49618818,9.4215856 7.49618818,10.0022082 C7.49618818,10.8272047 7.48635486,11.489327 7.48635486,11.6929511 C7.48635486,11.8559504 7.59575058,12.0495746 7.89394611,11.9884499 C10.280002,11.1734533 12,8.8715879 12,6.15209928 C12.0098065,2.7499885 9.31559882,0 6.0049647,0 Z" id="Path"></path>
                        </g>
                    </g>
                </g>
            </g>
        </g>
    </g>
</svg>